<svg xmlns="http://www.w3.org/2000/svg" width="20" height="20" viewBox="0 0 20 20">
  <path fill="#000" fill-rule="evenodd" d="M18.8211683,1.179 C18.0611683,0.418 17.0491683,0 15.9741683,0 C14.9001683,0 13.8881683,0.418 13.1281683,1.179 L1.71916832,12.587 C1.71916832,12.587 1.71816832,12.59 1.71616832,12.591 C1.63516832,12.673 1.49716832,12.889 1.45516832,13.052 L0.0301683198,18.756 C-0.0558316802,19.096 0.0451683198,19.458 0.29316832,19.705 L0.29416832,19.706 L0.29516832,19.707 C0.54316832,19.955 0.90316832,20.056 1.24416832,19.971 L6.94816832,18.544 C7.11116832,18.502 7.32816832,18.364 7.40916832,18.283 C7.41016832,18.282 7.41316832,18.28 7.41316832,18.28 L18.8221683,6.873 C19.5821683,6.112 20.0011683,5.102 20.0001683,4.026 C20.0001683,2.951 19.5821683,1.94 18.8221683,1.179 L18.8211683,1.179 Z M12.4111683,4.728 L15.2741683,7.591 L6.70616832,16.159 L3.84316832,13.296 L12.4111683,4.728 Z M2.37516832,17.626 L2.97016832,15.252 L4.75016832,17.033 L2.37516832,17.626 Z M17.4091683,2.594 C18.1731683,3.359 18.1731683,4.693 17.4091683,5.458 L16.6901683,6.178 L13.8241683,3.313 L14.5451683,2.594 C15.3101683,1.83 16.6441683,1.829 17.4091683,2.594 Z"/>
</svg>
