<svg xmlns="http://www.w3.org/2000/svg" width="20" height="20" viewBox="0 0 20 20">
  <path fill="#000" fill-rule="evenodd" d="M10.00025,20.00025 C9.74425,20.00025 9.48825,19.90225 9.29325,19.70725 L0.29325,10.70725 C-0.09775,10.31625 -0.09775,9.68425 0.29325,9.29325 L9.29325,0.29325 C9.68425,-0.09775 10.31625,-0.09775 10.70725,0.29325 L19.70725,9.29325 C20.09825,9.68325 20.09825,10.31625 19.70725,10.70725 L10.70725,19.70725 C10.51225,19.90325 10.25625,20.00025 10.00025,20.00025 Z M2.41425,10.00025 L10.00025,2.41525 L17.58625,10.00025 L10.00025,17.58625 L2.41425,10.00025 Z M9.00025,6.00025 L9.00025,12.00025 L11.00025,12.00025 L11.00025,6.00025 L9.00025,6.00025 Z M10.00025,15.25025 C10.6906059,15.25025 11.25025,14.6906059 11.25025,14.00025 C11.25025,13.3098941 10.6906059,12.75025 10.00025,12.75025 C9.30989406,12.75025 8.75025,13.3098941 8.75025,14.00025 C8.75025,14.6906059 9.30989406,15.25025 10.00025,15.25025 Z"/>
</svg>
