<svg xmlns="http://www.w3.org/2000/svg" width="14" height="20" viewBox="0 0 14 20">
  <path fill="#000" fill-rule="evenodd" d="M12,8.11 L12,5 C12,2.243 9.757,0 7,0 C4.243,0 2,2.243 2,5 L2,8.11 C0.765,9.373 0,11.098 0,13 C0,16.86 3.141,20 7,20 C10.859,20 14,16.86 14,13 C14,11.098 13.235,9.373 12,8.11 Z M7,2 C8.654,2 10,3.346 10,5 L10,6.686 C9.09,6.25 8.074,6 7,6 C5.926,6 4.91,6.25 4,6.686 L4,5 C4,3.346 5.346,2 7,2 Z M7,18 C4.243,18 2,15.757 2,13 C2,10.243 4.243,8 7,8 C9.757,8 12,10.243 12,13 C12,15.757 9.757,18 7,18 Z M7,16 C7.82842712,16 8.5,15.3284271 8.5,14.5 C8.5,13.6715729 7.82842712,13 7,13 C6.17157288,13 5.5,13.6715729 5.5,14.5 C5.5,15.3284271 6.17157288,16 7,16 Z"/>
</svg>
