<svg xmlns="http://www.w3.org/2000/svg" width="20" height="17" viewBox="0 0 20 17">
  <path fill="#000" fill-rule="evenodd" d="M19.4517116,7.44905643 C14.7508243,5.40906587 11.3290219,3.88361839 8.82266988,2.76544175 C3.93451069,0.586360922 2.61997132,0 1.70452101,0 C0.919070102,0 0.532708254,0.476361432 0.405436116,0.631815257 C-0.0754707492,1.22453979 -0.133652298,2.06180864 0.25816407,2.7136238 L3.59996678,8.28359802 L0.259073157,13.8517541 C-0.133652298,14.5044783 -0.0745616625,15.3408381 0.406345203,15.9335626 C0.533617341,16.0908346 0.919979189,16.567196 1.70633919,16.567196 L1.70633919,16.567196 C2.62088041,16.567196 3.92996526,15.9826533 8.79630637,13.8126633 C11.3053857,12.6935776 14.7344607,11.1635847 19.4526207,9.11723053 C19.7844373,8.97177666 19.9989818,8.64450544 19.9989818,8.28268894 C19.9989818,7.92087243 19.7844373,7.59269213 19.4517116,7.44905643 Z M1.89270196,1.84180966 C2.61997132,1.99089988 4.55541691,2.85453224 8.08176422,4.42725224 C9.81811982,5.20179411 12.0017461,6.17451688 14.7335516,7.37360224 L5.17450495,7.37360224 L5.17450495,7.37360224 L1.89270196,1.84180966 Z M8.05540071,12.1517619 C4.47178093,13.7508454 2.53815352,14.6126596 1.8490658,14.7335682 L5.17450495,9.19086655 L14.7344607,9.19086655 C11.9881098,10.3981337 9.79539265,11.3754019 8.05540071,12.1517619 Z"/>
</svg>
