<svg xmlns="http://www.w3.org/2000/svg" width="20" height="20" viewBox="0 0 20 20">
  <path fill="#000" fill-rule="evenodd" d="M10,20 C4.486,20 0,15.515 0,10 C0,4.487 4.486,0 10,0 C15.514,0 20,4.486 20,10 C20,15.515 15.514,20 10,20 Z M10,2 C14.411,2 18,5.589 18,10 C18,14.411 14.411,18 10,18 C5.589,18 2,14.411 2,10 C2,5.589 5.589,2 10,2 Z M11,13 L11,9 C11,8.448 10.553,8 10,8 L8,8 L8,10 L9,10 L9,13 L7,13 L7,15 L13,15 L13,13 L11,13 Z M10,7.25 C10.6903559,7.25 11.25,6.69035594 11.25,6 C11.25,5.30964406 10.6903559,4.75 10,4.75 C9.30964406,4.75 8.75,5.30964406 8.75,6 C8.75,6.69035594 9.30964406,7.25 10,7.25 Z"/>
</svg>
