<svg xmlns="http://www.w3.org/2000/svg" width="24" height="24" viewBox="0 0 24 24">
  <path fill="#000" d="M12.000625,0 C5.3722202,0 0,5.3722202 0,11.999375 C0,18.6277798 5.3722202,24 12.000625,24 C18.6265299,24 24,18.6277798 24,11.999375 C24,5.3722202 18.6265299,0 12.000625,0 Z M2.4998698,11.999375 C2.4998698,6.75339826 6.75214833,2.4998698 11.999375,2.4998698 C14.285506,2.4998698 16.3816468,3.30857768 18.0203114,4.65350763 L4.65350763,18.0203114 C3.30857768,16.3803969 2.4998698,14.285506 2.4998698,11.999375 Z M11.999375,21.4976303 C9.71449404,21.4976303 7.61835321,20.6901724 5.98093849,19.3452424 L19.3477423,5.97968856 C20.6914223,7.61960315 21.5001302,9.7132441 21.5001302,11.999375 C21.5001302,17.2453518 17.2453518,21.4976303 11.999375,21.4976303 L11.999375,21.4976303 Z"/>
</svg>
