<svg xmlns="http://www.w3.org/2000/svg" width="20" height="17" viewBox="0 0 20 17">
  <path fill="#000" d="M8.16326531,15.1020408 C8.16326531,15.1360545 8.167517,15.2210884 8.17602041,15.3571429 C8.18452381,15.4931977 8.18664966,15.6058673 8.18239796,15.6951531 C8.17814626,15.7844388 8.1653912,15.8843533 8.14413265,15.994898 C8.12287411,16.1054422 8.08035714,16.1883508 8.01658163,16.2436224 C7.95280612,16.2988945 7.86564668,16.3265306 7.75510204,16.3265306 L3.67346939,16.3265306 C2.66156505,16.3265306 1.79633929,15.9672615 1.07780612,15.2487245 C0.359269133,14.5301875 0,13.6649617 0,12.6530612 L0,3.67346939 C0,2.66156505 0.359269133,1.79633929 1.07780612,1.07780612 C1.79634311,0.359269133 2.66156888,0 3.67346939,0 L7.75510204,0 C7.8656463,0 7.96130995,0.040391199 8.04209184,0.121173469 C8.12287411,0.20195574 8.16326531,0.297618622 8.16326531,0.408163265 C8.16326531,0.442176913 8.167517,0.527210842 8.17602041,0.663265306 C8.18452381,0.799320153 8.18664966,0.911989796 8.18239796,1.00127551 C8.17814626,1.09056122 8.1653912,1.19047577 8.14413265,1.30102041 C8.12287411,1.41156467 8.08035714,1.49447321 8.01658163,1.5497449 C7.95280612,1.60501696 7.86564668,1.63265306 7.75510204,1.63265306 L3.67346939,1.63265306 C3.1122449,1.63265306 2.6318023,1.83248342 2.23214286,2.23214286 C1.83248342,2.6318023 1.63265306,3.1122449 1.63265306,3.67346939 L1.63265306,12.6530612 C1.63265306,13.2142857 1.83248342,13.6947283 2.23214286,14.0943878 C2.6318023,14.4940472 3.1122449,14.6938776 3.67346939,14.6938776 L7.65306122,14.6938776 L7.7997449,14.7066327 L7.94642857,14.744898 L8.04846939,14.815051 L8.1377551,14.9298469 L8.16326531,15.1020408 Z M20,8.16326531 C20,8.38435332 19.9192177,8.57567985 19.7576531,8.7372449 L12.8188776,15.6760204 C12.6573125,15.8375855 12.465986,15.9183673 12.244898,15.9183673 C12.0238099,15.9183673 11.8324834,15.8375851 11.6709184,15.6760204 C11.5093533,15.5144554 11.4285714,15.3231288 11.4285714,15.1020408 L11.4285714,11.4285714 L5.71428571,11.4285714 C5.4931977,11.4285714 5.30187117,11.3477892 5.14030612,11.1862245 C4.97874107,11.0246594 4.89795918,10.8333329 4.89795918,10.6122449 L4.89795918,5.71428571 C4.89795918,5.4931977 4.97874145,5.30187117 5.14030612,5.14030612 C5.30187117,4.97874107 5.4931977,4.89795918 5.71428571,4.89795918 L11.4285714,4.89795918 L11.4285714,1.2244898 C11.4285714,1.00340179 11.5093537,0.812075255 11.6709184,0.650510204 C11.8324834,0.488945153 12.0238099,0.408163265 12.244898,0.408163265 C12.465986,0.408163265 12.6573125,0.488945536 12.8188776,0.650510204 L19.7576531,7.58928571 C19.9192181,7.75085077 20,7.9421773 20,8.16326531 Z"/>
</svg>
