<svg xmlns="http://www.w3.org/2000/svg">
  <symbol id="icon-atom" viewBox="0 0 72 72">
    <path d="M0 36C0 16.1178 16.1178 0 36 0C55.8823 0 72 16.1178 72 36C72 55.8823 55.8823 72 36 72C16.1178 72 0 55.8823 0 36Z" fill="#F7F7F8"/>
    <path d="M21.2723 48.9371C21.488 51.7606 22.3058 54.0738 23.7289 55.6056C22.7112 58.2883 26.6683 60.0646 28.1757 57.6003C30.6743 57.6695 33.0783 56.5097 35.1115 55.1143C38.2932 57.7507 41.5472 58.8131 44.3157 57.8494C46.6203 57.0473 48.2744 54.9305 49.141 51.7362C50.2564 51.6051 51.0453 50.8241 51.2516 49.8931C52.1381 49.752 52.9646 49.552 53.7064 49.2938C55.8158 48.5595 57.2728 47.3925 58.0374 45.8246C59.2409 43.3563 58.4883 40.1793 55.9638 36.838C58.7945 33.7156 59.8218 30.6089 58.847 28.0475C57.838 25.3964 54.8893 23.6954 50.7245 23.0603C50.5052 20.2439 49.6876 17.9369 48.2662 16.4041C49.295 13.7175 45.3358 11.9139 43.8188 14.4076C41.3183 14.339 38.9143 15.4988 36.8873 16.8881C33.7055 14.2517 30.4509 13.1875 27.6843 14.1505C25.0042 15.0834 23.178 17.8322 22.4995 21.9161C19.0688 22.1474 15.4108 23.2054 13.9638 26.173C12.9241 28.3052 13.3191 30.9149 15.07 33.7464C14.4514 34.498 14.3326 35.588 14.9507 36.4892C12.9466 39.1763 12.3143 41.7488 13.153 43.9526C14.1607 46.6002 17.1094 48.3011 21.2725 48.9373L21.2723 48.9371ZM25.7212 55.5602C26.4611 55.3027 27.1649 55.9688 26.9626 56.6532C26.913 56.7363 26.8416 57.102 26.3704 57.266C25.5096 57.5676 24.5541 55.9664 25.7212 55.5602L25.7212 55.5602ZM28.5021 56.1632C28.2986 54.3959 26.2085 53.4668 24.6664 54.4541C23.6139 53.2057 22.9996 51.3562 22.7963 49.1187C24.8718 49.2973 27.1933 49.2408 29.6906 48.9337C31.0473 50.9594 32.4936 52.6947 33.969 54.101C32.3868 55.1581 30.4332 56.1212 28.5022 56.1634L28.5021 56.1632ZM16.8385 34.3186C17.0365 34.2856 17.2479 34.3097 17.4288 34.3963C18.5275 34.9169 17.7658 36.7111 16.3959 35.8942C16.2665 35.7897 15.8099 34.4913 16.8385 34.3186L16.8385 34.3186ZM19.2174 34.1445C20.2651 33.2495 21.4551 32.3887 22.7366 31.5659C22.9611 32.8514 23.2545 34.1646 23.6151 35.4844C23.131 36.7813 22.7196 38.0608 22.3799 39.3154C21.1709 38.3846 20.0696 37.4243 19.109 36.4449C19.5726 35.7293 19.5818 34.839 19.2175 34.1445L19.2174 34.1445ZM23.842 23.3183C25.6998 23.2976 27.7405 23.4944 29.8816 23.8954C29.0957 24.9524 28.3389 26.0751 27.6168 27.2614C26.3297 27.845 25.0915 28.4694 23.9175 29.1312C23.6861 27.0607 23.656 25.0975 23.842 23.3185L23.842 23.3183ZM48.2683 47.1038C47.4477 47.2918 46.7585 47.9184 46.4977 48.6571C45.1014 48.587 43.6268 48.3985 42.1073 48.114C42.8944 47.0546 43.656 45.9283 44.3793 44.7395C45.6664 44.156 46.9014 43.5287 48.0736 42.8675C48.2382 44.3353 48.3136 45.7603 48.2684 47.1038L48.2683 47.1038ZM25.206 35.5508C26.2056 32.9521 27.3463 30.6472 28.7111 28.3719C29.9411 27.8301 31.2169 27.3262 32.5275 26.87C33.8234 26.4189 35.1462 26.0223 36.4632 25.6815C37.7362 26.1235 39.0247 26.6279 40.2933 27.1951C41.5687 27.7639 42.799 28.3782 43.9629 29.0157C44.5372 30.2014 45.0711 31.429 45.5461 32.6771C46.0238 33.9322 46.4427 35.1918 46.7982 36.4436C45.8004 39.0417 44.6584 41.343 43.2931 43.6225C42.0619 44.1667 40.785 44.673 39.4744 45.1292C38.1693 45.5835 36.8428 45.9814 35.5258 46.3222C32.7325 45.3308 30.4135 44.282 28.0346 42.977C27.4617 41.7949 26.9285 40.569 26.4541 39.3227C25.9764 38.0676 25.5624 36.8043 25.2062 35.5507L25.206 35.5508ZM32.9588 46.9169C32.1147 47.0871 31.2817 47.2316 30.4652 47.3483C30.0338 46.6751 29.6147 45.9737 29.2078 45.2442C30.492 45.8797 31.5184 46.3418 32.9588 46.9169L32.9588 46.9169ZM35.4572 47.8454C36.8045 48.3074 38.145 48.7021 39.4656 49.0279C38.0919 50.6603 36.6614 52.0613 35.2263 53.1868C33.9104 51.9583 32.603 50.4457 31.3686 48.6922C32.6923 48.4786 34.0587 48.1964 35.4572 47.8452L35.4572 47.8454ZM38.0307 47.1311C38.688 46.9302 39.3438 46.7198 39.9936 46.4937C40.6452 46.2669 41.2853 46.0261 41.9201 45.7772C41.4491 46.4675 40.9686 47.1331 40.4757 47.7712C39.6691 47.5855 38.8544 47.3727 38.0307 47.1311ZM45.6689 42.4928C46.3456 41.2365 46.8333 40.2394 47.414 38.9169C47.5918 39.7183 47.7421 40.5132 47.8649 41.2958C47.1591 41.7089 46.4251 42.108 45.6689 42.4928L45.6689 42.4928ZM48.3859 36.5193C48.8707 35.2242 49.2821 33.9446 49.6211 32.6883C51.3287 34.0037 52.8038 35.3762 53.9796 36.7514C52.6727 38.0336 51.0772 39.2747 49.2681 40.4367C49.0418 39.1519 48.7465 37.8392 48.386 36.5194L48.3859 36.5193ZM47.6354 34.0433C47.428 33.4218 47.2101 32.7999 46.9742 32.1802C46.7384 31.5606 46.4867 30.9485 46.2258 30.3395C46.9443 30.7872 47.6404 31.2466 48.3076 31.7181C48.1132 32.4835 47.8857 33.2605 47.6354 34.0433ZM45.1418 27.9899C44.5224 26.7403 43.8702 25.5579 43.1916 24.4484C45.39 24.2274 47.4413 24.2112 49.2715 24.3855C49.2891 26.1516 49.0877 28.1037 48.6609 30.17C47.5486 29.4109 46.3739 28.6795 45.1421 27.9898L45.1418 27.9899ZM42.789 26.7536C42.1812 26.4548 41.5649 26.1609 40.9347 25.8799C40.307 25.6 39.673 25.3362 39.0393 25.0843C39.8852 24.9135 40.7164 24.7697 41.533 24.6529C41.9636 25.3244 42.3827 26.0257 42.7889 26.7536L42.789 26.7536ZM36.5255 24.1592C35.1732 23.6949 33.8384 23.3043 32.5284 22.9788C33.9039 21.3457 35.3362 19.9441 36.7733 18.8179C38.0893 20.0464 39.3941 21.5578 40.6296 23.3089C39.3004 23.5244 37.9296 23.8061 36.5256 24.1593L36.5255 24.1592ZM33.949 24.8766C33.2972 25.0756 32.6488 25.2833 32.0064 25.5069C31.3548 25.7337 30.7129 25.9751 30.0798 26.2234C30.5479 25.5362 31.0278 24.8747 31.5178 24.2396C32.3194 24.4232 33.1304 24.6372 33.9491 24.8766L33.949 24.8766ZM26.328 29.5109C25.662 30.7515 25.1695 31.7522 24.5843 33.0902C24.4065 32.2889 24.2543 31.4946 24.1308 30.7102C24.8385 30.2965 25.5707 29.8981 26.328 29.5108L26.328 29.5109ZM24.3652 37.9591C24.5726 38.5807 24.7899 39.2008 25.0257 39.8204C25.2615 40.4401 25.5133 41.0522 25.7742 41.6611C25.0538 41.2141 24.3603 40.7558 23.6937 40.2861C23.8881 39.5207 24.1156 38.7437 24.3652 37.9591ZM26.8581 44.0051C27.4763 45.2571 28.1292 46.4413 28.8078 47.5507C26.6094 47.7717 24.5574 47.7862 22.7273 47.6119C22.7103 45.8475 22.9131 43.8991 23.3405 41.8346C24.449 42.5891 25.6224 43.317 26.8579 44.0053L26.8581 44.0051ZM43.7959 56.484C41.6717 57.2234 39.0339 56.3175 36.3744 54.1831C37.9945 52.8915 39.5912 51.2752 41.1084 49.4014C42.9772 49.7876 44.784 50.0219 46.4892 50.1042C46.6921 50.7193 47.1277 51.1957 47.6568 51.474C47.1048 53.4524 45.9989 55.7172 43.7954 56.4842L43.7959 56.484ZM48.6862 50.3003C48.2609 50.2291 47.9049 49.8905 47.8875 49.4121C47.8895 48.311 49.6021 48.1115 49.7846 49.3358C49.8245 49.7366 49.3078 50.3889 48.6862 50.3003L48.6862 50.3003ZM56.6578 45.2131C55.8546 46.8602 53.9309 47.9784 51.098 48.4501C50.8523 47.9196 50.3642 47.4476 49.7695 47.216C49.8285 45.5747 49.7435 43.8341 49.5065 42.0229C51.58 40.745 53.4132 39.3613 54.9077 37.926C56.9565 40.7295 57.5918 43.2971 56.6577 45.2135L56.6578 45.2131ZM57.4182 28.5452C58.1752 30.5344 57.3186 33.0434 55.0109 35.6666C53.6642 34.1219 51.9689 32.5868 50.0107 31.1333C50.5372 28.803 50.7907 26.5936 50.7847 24.584C54.2161 25.1599 56.6436 26.5098 57.418 28.5448L57.4182 28.5452ZM46.8459 15.276C47.2746 16.4026 45.4925 17.0329 45.0604 15.8975C44.6316 14.7709 46.4151 14.1441 46.8459 15.276ZM43.4986 15.847C43.7001 17.587 45.7709 18.5368 47.3223 17.5522C48.3767 18.8 48.9922 20.6471 49.1979 22.8802C47.1225 22.7015 44.8016 22.7597 42.3043 23.0668C40.9464 21.0436 39.5026 19.3094 38.028 17.905C39.6164 16.8477 41.5713 15.8881 43.4987 15.8472L43.4986 15.847ZM28.2036 15.5172C30.3259 14.7785 32.9626 15.6868 35.6238 17.8206C34.0012 19.1111 32.4034 20.7298 30.8861 22.6035C28.4762 22.1047 26.1763 21.8566 24.0468 21.8643C24.6646 18.4815 26.1237 16.2411 28.2036 15.5172L28.2036 15.5172ZM15.3412 26.7882C16.2731 24.8769 18.7655 23.6864 22.3055 23.3912C22.1151 25.4052 22.1838 27.634 22.4922 29.9725C20.8882 30.9614 19.4349 32.0175 18.157 33.1182C17.5831 32.8315 16.8931 32.7767 16.3176 32.9351C15.2416 31.1705 14.3462 28.8288 15.3413 26.7879L15.3412 26.7882ZM16.1161 37.4072C16.7349 37.6364 17.4114 37.6063 17.9558 37.3829C19.1228 38.5815 20.4756 39.7533 21.9862 40.8742C21.4609 43.202 21.206 45.4079 21.2113 47.4156C17.7817 46.839 15.3542 45.4891 14.5805 43.456C13.7785 41.3489 14.8844 39.084 16.116 37.4072L16.1161 37.4072Z" fill="#2487B3"/>
  </symbol>
</svg>
